<?xml version="1.0" standalone="no"?>
<!DOCTYPE svg PUBLIC "-//W3C//DTD SVG 20010904//EN"
 "http://www.w3.org/TR/2001/REC-SVG-20010904/DTD/svg10.dtd">
<svg version="1.0" xmlns="http://www.w3.org/2000/svg"
 width="411.000000pt" height="411.000000pt" viewBox="0 0 411.000000 411.000000"
 preserveAspectRatio="xMidYMid meet">
<metadata>
Created by potrace 1.11, written by Peter Selinger 2001-2013
</metadata>
<g transform="translate(0.000000,411.000000) scale(0.100000,-0.100000)"
fill="#000000" stroke="none">
<path d="M1225 2899 c-411 -37 -749 -345 -816 -743 -19 -110 -6 -340 24 -458
31 -118 88 -241 150 -325 86 -115 245 -233 375 -278 243 -83 538 -73 803 27
66 25 64 20 104 270 31 196 31 188 -4 188 -26 0 -29 -4 -50 -74 -38 -127 -125
-248 -216 -301 -115 -66 -298 -71 -474 -12 -126 42 -196 84 -286 172 -172 167
-260 386 -258 645 1 246 75 426 241 582 140 132 309 198 507 198 169 0 293
-42 378 -127 62 -62 91 -113 116 -203 23 -81 35 -100 52 -83 13 13 13 68 0
262 -9 151 -9 150 -96 177 -253 78 -385 98 -550 83z"/>
<path d="M2313 2867 c-3 -5 -2 -28 2 -53 l6 -44 50 0 c68 0 126 -31 147 -78
15 -33 17 -101 17 -697 0 -495 -3 -670 -12 -700 -20 -65 -59 -94 -139 -106
-37 -5 -70 -11 -72 -14 -2 -2 -1 -25 3 -51 l7 -46 61 7 c76 8 1036 8 1094 -1
38 -6 43 -4 53 17 12 30 87 334 92 374 3 27 0 30 -25 30 -26 0 -30 -6 -48 -59
-27 -80 -80 -160 -126 -190 -72 -47 -146 -59 -357 -54 -226 5 -280 19 -330 81
l-31 39 0 677 c0 743 -2 716 60 749 16 9 59 19 95 22 l65 5 0 49 0 48 -303 2
c-167 0 -306 -3 -309 -7z"/>
</g>
</svg>
